# xmcd
#
# Track frame offsets: 
#        150
#        19050
#        39166
#        48981
#        63268
#        72280
#        86559
#        97835
#        110128
#        129087
#        138437
#        151444
#        165973
#        176582
#        190495
#
# Disc length: 2738 seconds
#
# Revision: 0
# Processed by: cddbd v1.5.2PL0 Copyright (c) Steve Scherf et al.
# Submitted via: ExactAudioCopyFreeDBPlugin 1.0
#
DISCID=bc0ab00f
DTITLE=Various Artist - MOJO - Memory Hotel
DYEAR=2018
DGENRE=Rock
TTITLE0=Funkadelic - Lunchmeataphobia (Think! It's Ain't Illegal Yet)
TTITLE1=Buckwheat Zydeco - The Wrong Side
TTITLE2=Benny Spellman - Fortune Teller
TTITLE3=Dion - The Wanderer
TTITLE4=The Coasters - I'm A Hog For You
TTITLE5=The Slickers - Johnny Too Bad
TTITLE6=The Maytals - Pressure Drop
TTITLE7=Patti LaBelle - I Sold My Heart To The Junkman
TTITLE8=Chuck Leavell - Evening Train
TTITLE9=Willie Mitchell - Crawl Part 1
TTITLE10=Justin Hinds and The Dominoes - Carry Go Bring Come
TTITLE11=Gregory Isaacs - Extra Classic
TTITLE12=Jimmy Reed - I Ain't Got You
TTITLE13=Chuck Berry - Wee Wee Hours
TTITLE14=Muddy Waters - Still A Fool
EXTD=
EXTT0=
EXTT1=
EXTT2=
EXTT3=
EXTT4=
EXTT5=
EXTT6=
EXTT7=
EXTT8=
EXTT9=
EXTT10=
EXTT11=
EXTT12=
EXTT13=
EXTT14=
PLAYORDER=
